<svg xmlns="http://www.w3.org/2000/svg" xmlns:xlink="http://www.w3.org/1999/xlink" version="1.1" x="0px" y="0px" viewBox="0 0 100 100" enable-background="new 0 0 100 100" xml:space="preserve"><path d="M50,5C25.1,5,5,25.2,5,50c0,24.9,20.1,45,45,45c24.9,0,45-20.1,45-45C95,25.2,74.9,5,50,5L50,5z M76,45.4  c0,1.9-1.5,3.4-3.4,3.4c-1.9,0-3.3-1.5-3.3-3.4v-9.9l-6.2,6.2v30.9c0,1.9-1.5,3.3-3.4,3.3H27.4c-1.9,0-3.4-1.5-3.4-3.3V40.3  c0-1.8,1.5-3.3,3.4-3.3h30.9l6.2-6.2h-9.9c-1.9,0-3.3-1.5-3.3-3.4c0-1.8,1.5-3.3,3.3-3.3h18c1.9,0,3.4,1.5,3.4,3.3V45.4z M41.2,58.8  c-1.3-1.3-1.3-3.4,0-4.7l10.4-10.4H30.8v25.6h25.6V48.4L45.9,58.8C44.6,60.1,42.5,60.1,41.2,58.8z"/></svg>
