<svg xmlns="http://www.w3.org/2000/svg" xmlns:xlink="http://www.w3.org/1999/xlink" id="Layer_1" data-name="Layer 1" viewBox="0 0 312.4475 62">
  <defs>
    <style>
      .cls-2{opacity:.15;isolation:isolate}
    </style>
    <linearGradient id="Unbenannter_Verlauf" x1="54.6285" x2="32.4285" y1="45.8978" y2="60.3578" data-name="Unbenannter Verlauf" gradientTransform="matrix(1 0 0 -1 0 63)" gradientUnits="userSpaceOnUse">
      <stop offset="0" stop-color="#80c3e6"/>
      <stop offset="1" stop-color="#3380c2"/>
    </linearGradient>
    <linearGradient id="Unbenannter_Verlauf_2" x1="58.4995" x2="41.9095" y1="12.4889" y2="23.4489" data-name="Unbenannter Verlauf 2" gradientTransform="matrix(1 0 0 -1 0 63)" gradientUnits="userSpaceOnUse">
      <stop offset="0" stop-color="#f38649"/>
      <stop offset=".18" stop-color="#f28147"/>
      <stop offset=".41" stop-color="#ef7242"/>
      <stop offset=".65" stop-color="#ea5a3a"/>
      <stop offset=".91" stop-color="#e4382e"/>
      <stop offset="1" stop-color="#e12a29"/>
    </linearGradient>
    <linearGradient id="Unbenannter_Verlauf_3" x1="3.8378" x2="35.5878" y1="35.92" y2="55.76" data-name="Unbenannter Verlauf 3" gradientTransform="matrix(1 0 0 -1 0 63)" gradientUnits="userSpaceOnUse">
      <stop offset="0" stop-color="#42ab4a"/>
      <stop offset="1" stop-color="#add155"/>
    </linearGradient>
    <linearGradient id="Unbenannter_Verlauf_4" x1="10.7967" x2="36.6033" y1=".4527" y2="41.7473" data-name="Unbenannter Verlauf 4" xlink:href="#Unbenannter_Verlauf_3"/>
  </defs>
  <path fill="url(#Unbenannter_Verlauf)" d="M47.3 25.9L59.7 6H29.8l-4.2 6.6 21.7 13.3z"/>
  <path d="M25.6 12.6l2.2-3.4 19.5 16.7-21.7-13.3z" class="cls-2"/>
  <path fill="url(#Unbenannter_Verlauf_2)" d="M53.8 62V32.1L47.4 28 33.8 49.5l20 12.5z"/>
  <path d="M33.8 49.5l3.4 2.1L47.4 28 33.8 49.5z" class="cls-2"/>
  <path fill="url(#Unbenannter_Verlauf_3)" d="M5.6 0v29.9l7 4.1 34.7-8.1L5.6 0z"/>
  <path fill="url(#Unbenannter_Verlauf_4)" d="M12.4 36.3L0 55.8h29.9L47.4 28l-35 8.3z"/>
  <path d="M65.4318 45.1289h3.9156l2.0019-24.5161h-4.0044V17.187h8.8989l8.0538 19.1323a18.9931 18.9931 0 0 1 .7119 2.27h.0888a18.984 18.984 0 0 1 .712-2.27L93.864 17.187h8.8989v3.4258H98.758l2.002 24.5161h3.9156V48.6H92.5734v-3.4711h3.7823L94.9318 26.353a21.6167 21.6167 0 0 1 .1333-2.581h-.1333a21.7484 21.7484 0 0 1-.7119 2.4028l-7.2085 16.5068h-3.9155l-7.208-16.5068a21.7484 21.7484 0 0 1-.7119-2.4028h-.1333a21.6167 21.6167 0 0 1 .1333 2.581l-1.4239 18.7759h3.7823V48.6H65.4318zM122.924 16.6528a15.8708 15.8708 0 0 1 16.1514 16.0181 16.1543 16.1543 0 1 1-32.3027 0 15.844 15.844 0 0 1 16.1513-16.0181zm0 28.521c6.3633 0 11.5244-5.4287 11.5244-12.5029 0-6.8521-5.1611-12.1025-11.5244-12.1025-6.4072 0-11.5683 5.25-11.5683 12.1025 0 7.0742 5.1611 12.5029 11.5683 12.5029zM141.883 45.1289h3.915V20.6128h-3.915V17.187h13.3926a22.2167 22.2167 0 0 1 6.6748.7564c6.0058 1.8686 9.9219 7.2968 9.9219 14.95 0 7.6084-3.7823 12.9033-9.9219 14.8613a20.8452 20.8452 0 0 1-6.63.8447H141.883zm13.17-.1777a14.3422 14.3422 0 0 0 5.34-.8008c4.2265-1.4688 6.8515-5.5176 6.8515-11.2568 0-5.7842-2.625-9.8335-6.8076-11.3462a15.0363 15.0363 0 0 0-5.3838-.712h-4.8047v24.1158zM173.0334 45.1289h2.9366l8.0977-12.4141-7.9639-12.102h-2.8926V17.187h10.9463v3.4258H180.82l5.2061 8.2314a11.9216 11.9216 0 0 1 .8008 1.2461h.0888a8.1276 8.1276 0 0 1 .7569-1.2461l5.0274-8.2314h-3.249V17.187h10.6347v3.4258H197.15l-8.143 12.5024 8.0088 12.0137h2.9815V48.6H189.051v-3.4711h3.2929l-5.25-8.1865c-.49-.7119-.8017-1.29-.8017-1.29h-.0889c-.0439 0-.2666.5782-.7119 1.29l-5.0723 8.1865h3.293V48.6h-10.6787zM212.1926 45.1289h3.915V20.6128h-3.915V17.187h13.3926a22.206 22.206 0 0 1 6.6738.7564c6.0068 1.8686 9.9228 7.2968 9.9228 14.95 0 7.6084-3.7822 12.9033-9.9228 14.8613a20.8351 20.8351 0 0 1-6.629.8453h-13.4374zm13.17-.1777a14.3413 14.3413 0 0 0 5.34-.8008c4.2266-1.4688 6.8516-5.5176 6.8516-11.2568 0-5.7842-2.625-9.8335-6.8076-11.3462a15.0366 15.0366 0 0 0-5.3838-.712h-4.8047v24.1158zM257.0471 25.5518c6.7187 0 12.1474 4.9389 12.1474 11.7461a12.1516 12.1516 0 0 1-24.2949 0c.0004-6.8072 5.4287-11.7461 12.1475-11.7461zm0 19.8447a7.805 7.805 0 0 0 7.7422-8.0986 7.7466 7.7466 0 1 0-15.4844 0 7.7784 7.7784 0 0 0 7.7422 8.0986zM283.301 25.5518c3.3369 0 8.81 1.2461 8.81 5.1171v2.7579h-3.8271V31.87c0-1.7353-2.8477-2.5805-4.85-2.5805-4.5381 0-7.6534 3.2036-7.6534 8.0083a7.6606 7.6606 0 0 0 7.92 8.0986 11.4215 11.4215 0 0 0 7.208-2.8926l1.6465 3.1592a13.7266 13.7266 0 0 1-9.0323 3.4707c-6.4961 0-12.1474-4.4942-12.1474-11.7471a11.5779 11.5779 0 0 1 11.9257-11.8348zM294.6047 41.3477h3.7822v1.4677c0 1.9131 2.67 2.8037 5.1621 2.8037 2.5362 0 4.5381-1.0234 4.5381-2.8925 0-2.27-2.4922-2.9815-5.6064-4.0938-3.337-1.2461-7.03-2.7588-7.03-6.8516 0-4.45 4.4053-6.2294 8.32-6.2294 3.1592 0 7.7871 1.2461 7.7871 4.5385v2.7144h-3.7822v-1.4683c0-1.3794-1.78-2.3139-3.96-2.3139-2.1357 0-4.0049.89-4.0049 2.7143 0 2.1353 2.4922 3.0249 5.2061 3.96 3.4707 1.1572 7.4307 2.625 7.4307 6.8076 0 4.2715-3.9151 6.63-9.0323 6.63-4.0937 0-8.8105-1.8242-8.8105-5.3838z"/>
</svg>
