<?xml version="1.0" encoding="UTF-8" standalone="no"?>
<svg width="100%" height="100%" viewBox="0 0 320 100" version="1.1" xmlns="http://www.w3.org/2000/svg" xmlns:xlink="http://www.w3.org/1999/xlink" xml:space="preserve" style="fill-rule:evenodd;clip-rule:evenodd;stroke-linejoin:round;stroke-miterlimit:1.41421;">
    <g>
        <g id="Symbol">
            <path d="M75.65,41.431L95.557,9.582L47.675,9.582L41.058,20.196L75.65,41.431Z" style="fill:url(#_Linear1);fill-rule:nonzero;"/>
            <path d="M41.062,20.196L44.45,14.747L75.654,41.431L41.062,20.196Z" style="fill-opacity:0.15;fill-rule:nonzero;"/>
            <path d="M86.179,99.174L86.179,51.294L75.85,44.838L54.129,79.147L86.179,99.174Z" style="fill:url(#_Linear2);fill-rule:nonzero;"/>
            <path d="M54.129,79.146L59.495,82.496L75.851,44.838L54.129,79.146Z" style="fill-opacity:0.15;fill-rule:nonzero;"/>
            <path d="M9.058,0L9.058,47.881L20.138,54.336L75.642,41.425L9.058,0Z" style="fill:url(#_Linear3);fill-rule:nonzero;"/>
            <path d="M19.905,57.987L0,89.299L47.881,89.299L75.856,44.838L19.905,57.987Z" style="fill:url(#_Linear4);fill-rule:nonzero;"/>
        </g>
        <g id="MODX" transform="matrix(1,0,0,1,0,-11)">
            <path d="M276.558,72.15L281.207,72.15L294.031,52.357L281.419,33.062L276.838,33.062L276.838,27.6L292.59,27.6L292.59,33.063L288.887,33.063L297.131,46.187C297.906,47.251 298.399,48.173 298.399,48.173L298.542,48.173C298.542,48.173 298.965,47.251 299.738,46.187L307.701,33.063L304.138,33.063L304.138,27.6L319.398,27.6L319.398,33.063L314.748,33.063L301.853,52.998L314.537,72.151L319.258,72.151L319.258,77.684L303.506,77.684L303.506,72.15L307.138,72.15L298.824,59.096C298.049,57.961 297.556,57.039 297.556,57.039L297.415,57.039C297.344,57.039 296.992,57.961 296.288,59.096L288.254,72.15L291.888,72.15L291.888,77.683L276.56,77.683L276.56,72.15L276.558,72.15Z" style="fill:white;fill-rule:nonzero;"/>
            <path d="M226.586,72.15L232.787,72.15L232.787,33.062L226.586,33.062L226.586,27.6L247.795,27.6C251.951,27.6 255.052,27.813 258.363,28.806C267.876,31.785 274.076,40.441 274.076,52.642C274.076,64.773 268.087,73.215 258.363,76.336C255.122,77.399 251.81,77.684 247.865,77.684L226.586,77.684L226.586,72.15ZM247.442,71.866C250.683,71.866 253.361,71.582 255.897,70.59C262.59,68.248 266.748,61.793 266.748,52.642C266.748,43.419 262.591,36.964 255.969,34.552C253.221,33.559 250.684,33.417 247.443,33.417L239.833,33.417L239.833,71.866L247.442,71.866Z" style="fill:white;fill-rule:nonzero;"/>
            <path d="M196.318,26.749C210.693,26.749 221.894,37.886 221.894,52.286C221.894,67.042 210.693,78.535 196.318,78.535C181.875,78.535 170.742,67.042 170.742,52.286C170.742,37.886 181.875,26.749 196.318,26.749ZM196.318,72.222C206.394,72.222 214.567,63.566 214.567,52.286C214.567,41.362 206.394,32.991 196.318,32.991C186.172,32.991 178,41.362 178,52.286C178,63.565 186.173,72.222 196.318,72.222Z" style="fill:white;fill-rule:nonzero;"/>
            <path d="M104.716,72.15L110.917,72.15L114.088,33.062L107.746,33.062L107.746,27.6L121.838,27.6L134.591,58.104C135.366,60.162 135.719,61.722 135.719,61.722L135.86,61.722C135.86,61.722 136.213,60.161 136.988,58.104L149.74,27.6L163.831,27.6L163.831,33.063L157.49,33.063L160.661,72.151L166.861,72.151L166.861,77.684L147.696,77.684L147.696,72.15L153.685,72.15L151.43,42.212C151.36,40.651 151.642,38.099 151.642,38.099L151.43,38.099C151.43,38.099 150.867,40.511 150.303,41.929L138.89,68.248L132.69,68.248L121.274,41.93C120.711,40.512 120.147,38.1 120.147,38.1L119.935,38.1C119.935,38.1 120.217,40.653 120.147,42.213L117.892,72.151L123.88,72.151L123.88,77.684L104.715,77.684L104.715,72.15L104.716,72.15Z" style="fill:white;fill-rule:nonzero;"/>
        </g>
        <g id="DOCS" transform="matrix(1.04189,0,0,1.04189,-110.028,15.3513)">
            <path id="S" d="M404.677,76.294C405.978,76.294 406.984,75.932 407.695,75.209C408.406,74.486 408.762,73.51 408.762,72.281C408.762,71.631 408.653,71.052 408.436,70.546C408.219,70.04 407.936,69.582 407.587,69.173C407.237,68.763 406.834,68.39 406.376,68.052C405.918,67.715 405.448,67.377 404.966,67.04C404.412,66.654 403.833,66.245 403.231,65.811C402.628,65.377 402.08,64.871 401.586,64.293C401.092,63.714 400.688,63.04 400.375,62.268C400.062,61.497 399.905,60.594 399.905,59.557C399.905,58.545 400.08,57.63 400.429,56.81C400.779,55.991 401.261,55.292 401.875,54.714C402.49,54.135 403.225,53.689 404.08,53.376C404.936,53.063 405.858,52.906 406.846,52.906C407.81,52.906 408.701,53.027 409.521,53.268C410.34,53.509 411.027,53.798 411.581,54.135L410.569,56.702C410.063,56.364 409.515,56.105 408.924,55.925C408.334,55.744 407.713,55.653 407.063,55.653C405.882,55.653 404.936,55.973 404.225,56.611C403.514,57.25 403.159,58.184 403.159,59.413C403.159,60.088 403.273,60.678 403.502,61.184C403.731,61.69 404.032,62.148 404.406,62.558C404.779,62.967 405.213,63.341 405.707,63.678C406.201,64.016 406.725,64.365 407.279,64.727C407.834,65.088 408.4,65.486 408.978,65.919C409.557,66.353 410.081,66.853 410.551,67.42C411.021,67.986 411.406,68.649 411.708,69.408C412.009,70.167 412.159,71.064 412.159,72.101C412.159,73.041 412.015,73.932 411.726,74.776C411.436,75.619 410.985,76.36 410.37,76.999C409.756,77.637 408.984,78.143 408.057,78.517C407.129,78.89 406.038,79.077 404.785,79.077C403.629,79.077 402.616,78.945 401.749,78.68C400.881,78.415 400.11,78.065 399.435,77.631L400.448,75.029C401.074,75.414 401.719,75.721 402.381,75.95C403.044,76.179 403.809,76.294 404.677,76.294Z" style="fill:white;fill-rule:nonzero;"/>
            <path id="C" d="M391.953,79.077C389.013,79.077 386.76,77.981 385.193,75.788C383.627,73.595 382.844,70.209 382.844,65.63C382.844,63.293 383.066,61.317 383.512,59.702C383.958,58.087 384.579,56.774 385.374,55.762C386.169,54.75 387.109,54.021 388.193,53.575C389.278,53.129 390.459,52.906 391.736,52.906C392.796,52.906 393.784,53.045 394.7,53.322C395.616,53.599 396.363,53.942 396.941,54.352L395.965,57.063C395.387,56.678 394.766,56.364 394.104,56.123C393.441,55.882 392.676,55.762 391.808,55.762C389.88,55.762 388.483,56.563 387.615,58.166C386.747,59.768 386.314,62.256 386.314,65.63C386.314,69.028 386.772,71.643 387.687,73.474C388.603,75.306 390.097,76.222 392.17,76.222C393.158,76.222 393.959,76.101 394.573,75.86C395.188,75.619 395.784,75.306 396.363,74.92L397.267,77.487C396.712,77.92 395.983,78.294 395.08,78.607C394.176,78.921 393.134,79.077 391.953,79.077Z" style="fill:white;fill-rule:nonzero;"/>
            <path id="O" d="M378.831,66.028C378.831,67.98 378.656,69.757 378.307,71.36C377.958,72.962 377.415,74.336 376.68,75.481C375.945,76.625 375.018,77.511 373.897,78.137C372.776,78.764 371.457,79.077 369.939,79.077C368.421,79.077 367.101,78.764 365.981,78.137C364.86,77.511 363.932,76.625 363.197,75.481C362.462,74.336 361.914,72.962 361.552,71.36C361.191,69.757 361.01,67.98 361.01,66.028C361.01,64.076 361.191,62.293 361.552,60.678C361.914,59.063 362.462,57.684 363.197,56.539C363.932,55.394 364.86,54.503 365.981,53.864C367.101,53.225 368.421,52.906 369.939,52.906C371.457,52.906 372.776,53.225 373.897,53.864C375.018,54.503 375.945,55.394 376.68,56.539C377.415,57.684 377.958,59.063 378.307,60.678C378.656,62.293 378.831,64.076 378.831,66.028ZM375.361,66.028C375.361,64.51 375.265,63.124 375.072,61.871C374.879,60.618 374.566,59.539 374.132,58.636C373.698,57.732 373.138,57.027 372.451,56.521C371.764,56.015 370.927,55.762 369.939,55.762C368.951,55.762 368.113,56.015 367.426,56.521C366.74,57.027 366.179,57.732 365.746,58.636C365.312,59.539 364.993,60.618 364.788,61.871C364.583,63.124 364.48,64.51 364.48,66.028C364.48,67.546 364.583,68.932 364.788,70.185C364.993,71.438 365.312,72.51 365.746,73.402C366.179,74.294 366.74,74.986 367.426,75.481C368.113,75.975 368.951,76.222 369.939,76.222C370.927,76.222 371.764,75.975 372.451,75.481C373.138,74.986 373.698,74.294 374.132,73.402C374.566,72.51 374.879,71.438 375.072,70.185C375.265,68.932 375.361,67.546 375.361,66.028Z" style="fill:white;fill-rule:nonzero;"/>
            <path id="D" d="M356.998,65.992C356.998,68.329 356.751,70.311 356.257,71.938C355.763,73.565 355.052,74.884 354.124,75.896C353.196,76.908 352.076,77.643 350.762,78.101C349.449,78.559 347.985,78.788 346.37,78.788C344.732,78.788 342.997,78.571 341.165,78.137L341.165,53.846C342.081,53.653 342.972,53.497 343.84,53.376C344.708,53.256 345.539,53.195 346.334,53.195C347.973,53.195 349.449,53.424 350.762,53.882C352.076,54.34 353.196,55.075 354.124,56.087C355.052,57.099 355.763,58.419 356.257,60.045C356.751,61.672 356.998,63.654 356.998,65.992ZM353.528,65.992C353.528,64.208 353.395,62.69 353.13,61.437C352.865,60.184 352.455,59.16 351.901,58.365C351.347,57.569 350.618,56.991 349.714,56.629C348.81,56.268 347.732,56.087 346.479,56.087C346.141,56.087 345.804,56.099 345.467,56.123C345.129,56.147 344.78,56.184 344.418,56.232L344.418,75.752C344.78,75.8 345.129,75.836 345.467,75.86C345.804,75.884 346.129,75.896 346.443,75.896C347.72,75.896 348.804,75.715 349.696,75.354C350.588,74.993 351.317,74.42 351.883,73.637C352.449,72.854 352.865,71.836 353.13,70.582C353.395,69.329 353.528,67.799 353.528,65.992Z" style="fill:white;fill-rule:nonzero;"/>
        </g>
    </g>
    <defs>
        <linearGradient id="_Linear1" x1="0" y1="0" x2="1" y2="0" gradientUnits="userSpaceOnUse" gradientTransform="matrix(-35.5126,-23.1245,23.1245,-35.5126,87.4404,27.3486)"><stop offset="0" style="stop-color:rgb(128,195,230);stop-opacity:1"/><stop offset="1" style="stop-color:rgb(51,128,194);stop-opacity:1"/></linearGradient>
        <linearGradient id="_Linear2" x1="0" y1="0" x2="1" y2="0" gradientUnits="userSpaceOnUse" gradientTransform="matrix(-26.5468,-17.5309,17.5309,-26.5468,93.6724,80.752)"><stop offset="0" style="stop-color:rgb(243,134,73);stop-opacity:1"/><stop offset="0.18" style="stop-color:rgb(242,129,71);stop-opacity:1"/><stop offset="0.41" style="stop-color:rgb(239,114,66);stop-opacity:1"/><stop offset="0.65" style="stop-color:rgb(234,90,58);stop-opacity:1"/><stop offset="0.91" style="stop-color:rgb(228,56,46);stop-opacity:1"/><stop offset="1" style="stop-color:rgb(225,42,41);stop-opacity:1"/></linearGradient>
        <linearGradient id="_Linear3" x1="0" y1="0" x2="1" y2="0" gradientUnits="userSpaceOnUse" gradientTransform="matrix(50.7872,-31.7353,31.7353,50.7872,6.1973,43.3027)"><stop offset="0" style="stop-color:rgb(66,171,74);stop-opacity:1"/><stop offset="1" style="stop-color:rgb(173,209,85);stop-opacity:1"/></linearGradient>
        <linearGradient id="_Linear4" x1="0" y1="0" x2="1" y2="0" gradientUnits="userSpaceOnUse" gradientTransform="matrix(41.282,-66.0649,66.0649,41.282,17.2871,100.101)"><stop offset="0" style="stop-color:rgb(66,171,74);stop-opacity:1"/><stop offset="1" style="stop-color:rgb(173,209,85);stop-opacity:1"/></linearGradient>
    </defs>
</svg>
