<svg version="1.1" id="Layer_1" xmlns="http://www.w3.org/2000/svg" x="0" y="0" viewBox="0 0 256 256" xml:space="preserve"><style>path.outline { fill: #000; } @media (prefers-color-scheme: dark) {path.outline { fill: #999; } }</style><path fill="none" d="M0 0h256v256H0z"/><path fill="#fff" d="M211.4 214.4H48c-9.2 0-16.7 7.5-16.7 16.7s7.5 16.7 16.7 16.7h163.4c-4-4.4-6.4-10.3-6.4-16.7 0-6.5 2.4-12.3 6.4-16.7zM43.9 8.8c-7.2 1.9-12.5 8.3-12.5 16.1v187.7c3.5-3.1 7.8-5.3 12.5-6.1V8.8zM52.1 129.8l173.7-41.4V76.1L52.1 116.8z"/>
<path fill="#ff9640" d="M52.1 129.8v76.3h110.5l63.2-101.5V88.4z"/><path fill="#ff5529" d="m225.8 104.6-63.2 101.5h63.2z"/><path fill="#00decc" d="M132.1 8.3h-80v108.5l173.7-40.7V66z"/><path fill="#00b5de" d="M225.8 8.3h-93.7L225.8 66z"/><path fill="#000" class="outline" d="M229.9 214.4c2.3 0 4.1-1.8 4.1-4.1V4.1c0-2.3-1.8-4.1-4.1-4.1H48C34.3 0 23.1 11.2 23.1 24.9v202.7s-.4 4.9 1.6 12C27.1 248 37.3 256 48 256h181.9c2.3 0 4.1-1.8 4.1-4.1s-1.8-4.1-4.1-4.1c-9.2 0-16.7-7.5-16.7-16.7s7.5-16.7 16.7-16.7zM31.3 24.9c0-7.8 5.4-14.3 12.5-16.1v197.7c-4.8.8-9.1 3-12.5 6.1V24.9zM48 247.7c-9.2 0-16.7-7.5-16.7-16.7s7.5-16.7 16.7-16.7h163.4c-4 4.4-6.4 10.3-6.4 16.7 0 6.4 2.4 12.3 6.4 16.7H48zm4.1-41.6V8.3h173.7v197.9H52.1z"/></svg>