<?xml version="1.0" standalone="no"?>
<!DOCTYPE svg PUBLIC "-//W3C//DTD SVG 20010904//EN"
 "http://www.w3.org/TR/2001/REC-SVG-20010904/DTD/svg10.dtd">
<svg version="1.0" xmlns="http://www.w3.org/2000/svg"
 width="700.000000pt" height="700.000000pt" viewBox="0 0 700.000000 700.000000"
 preserveAspectRatio="xMidYMid meet">
<g transform="translate(0.000000,700.000000) scale(0.100000,-0.100000)"
fill="#000000" stroke="none">
<path d="M1214 6990 c-151 -22 -307 -106 -405 -219 -100 -114 -153 -237 -170
-389 -6 -65 -9 -1038 -7 -2932 l4 -2835 22 -89 c12 -49 33 -112 46 -141 73
-161 237 -294 436 -357 l75 -23 2557 0 2558 0 30 31 c52 51 42 137 -20 169
-16 8 -43 15 -59 15 -162 0 -331 111 -409 268 -36 74 -37 78 -37 191 0 113 1
118 37 194 75 157 240 267 403 267 57 0 102 30 115 78 7 28 9 903 8 2876 l-3
2836 -33 32 -32 33 -2533 1 c-1392 1 -2555 -2 -2583 -6z m4964 -2922 l2 -2708
-2380 0 -2380 0 0 2703 c0 1487 3 2707 7 2710 3 4 1073 6 2377 5 l2371 -3 3
-2707z m-4978 -12 l0 -2703 -67 -18 c-77 -21 -175 -69 -232 -114 -22 -17 -42
-31 -45 -31 -3 0 -6 1160 -6 2578 0 2812 -3 2653 57 2765 40 75 126 158 203
195 36 17 71 32 78 32 9 0 12 -547 12 -2704z m4524 -2996 c-157 -236 -149
-563 19 -783 21 -26 37 -49 37 -52 0 -3 -1025 -4 -2278 -3 l-2277 3 -60 24
c-171 68 -279 198 -305 368 -21 135 24 276 122 379 61 64 115 99 196 125 54
17 159 18 2328 18 l2272 1 -54 -80z"/>
<path d="M3631 6766 c10 -8 2515 -1549 2526 -1553 10 -4 13 155 13 776 l0 781
-1272 0 c-699 0 -1269 -2 -1267 -4z"/>
<path d="M5309 2749 l-855 -1374 855 -3 c470 -1 856 -1 858 1 2 2 2 622 1
1377 l-3 1373 -856 -1374z"/>
</g>
</svg>
