<?xml version="1.0" encoding="utf-8"?><!DOCTYPE svg PUBLIC "-//W3C//DTD SVG 1.1//EN" "http://www.w3.org/Graphics/SVG/1.1/DTD/svg11.dtd"><svg xmlns="http://www.w3.org/2000/svg" xmlns:xlink="http://www.w3.org/1999/xlink"><symbol viewBox="0 0 40 62" id="chevron" xmlns="http://www.w3.org/2000/svg"><path d="M7.594.39L.656 7.61l24.25 23.406L.656 54.39l6.938 7.218 28-27 3.75-3.593-3.75-3.625z"/></symbol><symbol viewBox="0 0 90 90" id="close" xmlns="http://www.w3.org/2000/svg"><path d="M44.994.001C20.339.001.155 20.061.001 44.716-.076 56.738 4.534 68.067 12.977 76.62c8.446 8.553 19.716 13.305 31.735 13.379h.293c24.652 0 44.836-20.057 44.993-44.715C90.153 20.476 70.096.161 44.994.001zm.012 83.931h-.255c-10.399-.065-20.149-4.177-27.455-11.575C9.987 64.956 6.003 55.156 6.068 44.754 6.201 23.423 23.663 6.068 45.243 6.068c21.467.136 38.822 17.713 38.689 39.178-.137 21.334-17.598 38.686-38.926 38.686z"/><path d="M64.038 25.962a3.033 3.033 0 00-4.29 0L45 40.71 30.252 25.962a3.033 3.033 0 10-4.29 4.29L40.71 45 25.962 59.748a3.033 3.033 0 104.29 4.29L45 49.29l14.748 14.748c.593.593 1.369.889 2.145.889s1.552-.296 2.145-.889a3.033 3.033 0 000-4.29L49.29 45l14.748-14.748a3.033 3.033 0 000-4.29z"/></symbol><symbol viewBox="0 0 76 76" id="externallink" xmlns="http://www.w3.org/2000/svg"><path d="M27.372 46.133L72.344 1.162l2.616 2.616-44.972 44.971z"/><path d="M75.6 28.7h-3.8V4.4H47.4V.6h28.2zm-7.5 46.9H.6V8.1h33.7v3.8h-30v60h60v-30h3.8z"/></symbol><symbol viewBox="0 0 2040 345" fill-rule="evenodd" clip-rule="evenodd" stroke-linejoin="round" stroke-miterlimit="2" id="logo" xmlns="http://www.w3.org/2000/svg"><clipPath id="da"><path d="M331 34H165l-23 36 120 74 69-110z" clip-rule="nonzero"/></clipPath><g clip-path="url(#da)"><path fill="#00b5de" d="M137 29h199v120H137z"/></g><clipPath id="db"><path d="M142 70L31 1v166l39 22 192-45-120-74z" clip-rule="nonzero"/></clipPath><g clip-path="url(#db)"><path fill="#00decc" d="M26-4h241v198H26z"/></g><clipPath id="dc"><path d="M298 178l-36-22-74 119 110 69V178z" clip-rule="nonzero"/></clipPath><g clip-path="url(#dc)"><path fill="#ff5529" d="M183 151h120v198H183z"/></g><clipPath id="dd"><path d="M262 156L69 202 0 310h166l22-35 74-119z" clip-rule="nonzero"/></clipPath><g clip-path="url(#dd)"><path fill="#ff9640" d="M-5 151h272v164H-5z"/></g><g><path d="M435.75 266V91h33.5l74.5 123.5H526L599.25 91h33.25l.5 175h-38l-.25-116.75h7l-58.5 98.25H525l-59.75-98.25h8.5V266h-38zM770.4 269c-14 0-26.75-2.25-38.25-6.75-11.75-4.5-22-11-30.5-19-8.5-8.25-15.25-17.75-20-28.75s-7.25-23-7.25-36 2.5-25 7.25-36 11.5-20.5 20-28.75 18.75-14.5 30.5-19c11.5-4.5 24.25-6.75 38-6.75 14 0 26.5 2.25 38.25 6.75 11.5 4.5 21.75 10.75 30.25 19 8.5 8 15.25 17.75 20 28.5 4.75 11 7.25 23.25 7.25 36.25s-2.5 25-7.25 36.25c-4.75 11-11.5 20.5-20 28.5-8.5 8.25-18.75 14.5-30.25 19-11.75 4.5-24.25 6.75-38 6.75zm-.25-34.5c7.75 0 15-1.25 21.75-4 6.5-2.75 12.25-6.5 17.25-11.5s8.75-11 11.5-17.75c2.75-7 4.25-14.5 4.25-22.75s-1.5-16-4.25-22.75-6.5-12.75-11.5-17.75-10.75-8.75-17.25-11.5c-6.75-2.75-14-4-21.75-4s-15 1.25-21.75 4c-6.5 2.75-12.25 6.5-17.25 11.5s-8.75 11-11.5 17.75c-2.75 7-4.25 14.5-4.25 22.75s1.5 15.75 4.25 22.75c2.75 6.75 6.5 12.75 11.5 17.75 4.75 5 10.75 8.75 17.25 11.5 6.75 2.75 14 4 21.75 4zM907.3 266V91h79.5c19 0 35.75 3.5 50.25 10.75s25.75 17.5 34 30.5c8 13 12.25 28.5 12.25 46.25s-4.25 33-12.25 46.25c-8.25 13-19.5 23.25-34 30.5S1005.8 266 986.8 266h-79.5zm40.5-33.25h37c11.75 0 21.75-2.25 30.5-6.5 8.5-4.5 15-10.75 19.75-19 4.75-8 7.25-17.75 7.25-28.75 0-11.25-2.5-20.75-7.25-29-4.75-8-11.25-14.25-19.75-18.75-8.75-4.25-18.75-6.5-30.5-6.5h-37v108.5zM1098.45 266l75.25-103.75v29.5L1101.7 91h46l49.75 70.25-19.25.25 49.25-70.5h43.75l-71.5 99v-29l75.75 105h-46.75l-51.5-74.25h18.5L1144.95 266h-46.5z" fill="#102c53" fill-rule="nonzero"/><path d="M1386.5 266V91h79.5c19 0 35.75 3.5 50.25 10.75s25.75 17.5 34 30.5c8 13 12.25 28.5 12.25 46.25s-4.25 33-12.25 46.25c-8.25 13-19.5 23.25-34 30.5S1485 266 1466 266h-79.5zm40.5-33.25h37c11.75 0 21.75-2.25 30.5-6.5 8.5-4.5 15-10.75 19.75-19 4.75-8 7.25-17.75 7.25-28.75 0-11.25-2.5-20.75-7.25-29-4.75-8-11.25-14.25-19.75-18.75-8.75-4.25-18.75-6.5-30.5-6.5h-37v108.5zM1670.15 268c-14.25 0-27-3-38-9-11.25-6-20-14-26.25-24.5-6.5-10.5-9.75-22.5-9.75-35.75 0-13.5 3.25-25.5 9.75-36 6.25-10.25 15-18.5 26.25-24.25 11-6 23.5-9 38-9 14.25 0 27 3 38 9 11.25 5.75 19.75 14 26.25 24.25 6.25 10.5 9.5 22.5 9.5 36s-3.25 25.25-9.5 35.75-15 18.5-26.25 24.5-23.75 9-38 9zm0-32c6.5 0 12.25-1.5 17.5-4.5 5-3 9.25-7.25 12.25-12.75 3-5.75 4.5-12.5 4.5-20 0-7.75-1.5-14.5-4.5-20s-7.25-9.75-12.25-12.75c-5.25-3-11-4.5-17.5-4.5s-12.5 1.5-17.5 4.5c-5.25 3-9.25 7.25-12.25 12.75-3.25 5.5-4.75 12.25-4.75 20 0 7.5 1.5 14.25 4.75 20 3 5.5 7 9.75 12.25 12.75 5 3 11 4.5 17.5 4.5zM1839.55 268c-14.5 0-27.25-3-38.75-9-11.25-5.75-20-14-26.5-24.5s-9.75-22.25-9.75-35.75 3.25-25.5 9.75-36c6.5-10.25 15.25-18.5 26.5-24.25 11.5-6 24.25-9 38.75-9 14.25 0 26.5 3 37 9 10.5 5.75 18.25 14.25 23.25 25.25L1869.55 180c-3.5-6.25-8-11-13.25-14s-10.75-4.5-17-4.5c-6.5 0-12.5 1.5-18 4.5-5.25 3-9.5 7.25-12.5 12.75-3.25 5.5-4.75 12.25-4.75 20s1.5 14.5 4.75 20c3 5.5 7.25 9.75 12.5 12.75 5.5 3 11.5 4.5 18 4.5 6.25 0 11.75-1.5 17-4.5 5.25-2.75 9.75-7.5 13.25-14l30.25 16.5c-5 10.75-12.75 19-23.25 25s-22.75 9-37 9zM1971.95 268c-11.5 0-22.5-1.5-33-4.25s-19-6.25-25.25-10.25l13-28c6 4 13.25 7 21.75 9.5 8.5 2.25 16.75 3.5 25 3.5 9 0 15.5-1.25 19.25-3.25 3.75-2.25 5.5-5.25 5.5-9 0-3.25-1.5-5.5-4.25-7.25-3-1.5-7-2.75-11.75-3.5-4.75-1-10-1.75-15.75-2.5-6-.75-11.75-2-17.5-3.5s-11.25-3.5-16-6.25a31.702 31.702 0 01-11.5-11.5c-3-4.75-4.5-11-4.5-18.75 0-8.5 2.5-16 7.5-22.5s12-11.75 21.25-15.25c9.25-3.75 20.5-5.75 33.5-5.75 9.25 0 18.5 1 28 3s17.5 5 23.75 8.75l-13 27.75c-6.5-3.75-13-6.5-19.75-7.75-6.5-1.5-12.75-2.25-19-2.25-8.75 0-15 1.25-19 3.5-4 2.5-6 5.25-6 9 0 3.25 1.5 5.75 4.25 7.5 3 1.75 7 3 11.75 4s10 1.75 15.75 2.5c6 1 11.75 2 17.5 3.5s11 3.5 15.75 6.25c5 2.75 8.75 6.5 11.75 11.5 3 4.75 4.5 11 4.5 18.5 0 8.25-2.5 15.75-7.5 22-5 6.5-12.25 11.5-21.75 15.25-9.25 3.5-20.75 5.5-34.25 5.5z" fill="#00b5de" fill-rule="nonzero"/></g></symbol><symbol viewBox="0 0 98 84" id="menu" xmlns="http://www.w3.org/2000/svg"><path d="M92.7 36.7H5.3C2.4 36.7 0 39.1 0 42s2.4 5.3 5.3 5.3h87.4c2.9 0 5.3-2.4 5.3-5.3s-2.4-5.3-5.3-5.3zM5.3 11.2H75c2.9 0 5.3-2.4 5.3-5.3S77.9.6 75 .6H5.3C2.4.6 0 3 0 5.9s2.4 5.3 5.3 5.3zM43 72.8H5.3c-2.9 0-5.3 2.4-5.3 5.3s2.4 5.3 5.3 5.3H43c2.9 0 5.3-2.4 5.3-5.3s-2.4-5.3-5.3-5.3z"/></symbol><symbol fill="none" viewBox="0 0 168 28" id="opencollective" xmlns="http://www.w3.org/2000/svg"><path fill-rule="evenodd" clip-rule="evenodd" d="M106.727 5h1.732c.035 0 .07.036.106.108v15.063c0 .072-.036.108-.106.108h-1.732c-.07 0-.106-.036-.106-.108V5.108c0-.072.036-.108.106-.108zm33.284 4.685h1.943c.036 0 .106.072.106.108v1.766c0 .072-.035.108-.106.108h-1.943c-.035 0-.071.036-.071.072v8.432c0 .072-.035.108-.106.108h-1.731c-.071 0-.106-.036-.106-.108V11.74c0-.036-.035-.072-.071-.072h-1.908c-.07 0-.106-.036-.106-.108V9.793c0-.072.036-.108.106-.108h1.908c.036 0 .071-.036.071-.072V5.108c0-.072.035-.108.106-.108h1.731c.071 0 .106.036.106.108v4.505c0 .036.036.072.071.072zm5.512-3.388h-1.731c-.071 0-.106.036-.106.108v1.766c0 .072.035.108.106.108h1.731c.071 0 .106-.036.106-.108V6.405c0-.072-.035-.108-.106-.108zm14.204 11.027a3.335 3.335 0 002.544 1.153c1.307 0 2.438-.756 3.074-1.837 0-.072.07-.072.106-.072l1.731.324c.071 0 .106.072.071.144-.813 1.982-2.721 3.387-4.947 3.387-3.074 0-5.512-2.594-5.371-5.73.106-2.81 2.403-5.08 5.159-5.188 2.615-.109 4.841 1.73 5.406 4.216 0 .036 0 .072-.071.108l-1.731.757-5.936 2.558c-.071.036-.071.108-.035.18zm5.088-4.648a3.314 3.314 0 00-2.544-1.19c-1.908 0-3.463 1.55-3.428 3.532v.288c0 .036.071.108.142.072.07-.036 5.794-2.522 5.794-2.522.071-.036.071-.108.036-.18zm-8.127-2.991h-1.696c-.035 0-.071.036-.106.072l-2.756 8.252c-.071.18-.283.18-.353 0l-2.756-8.252c0-.036-.036-.072-.106-.072h-1.696c-.071 0-.106.072-.106.144l3.498 10.378c0 .036.035.072.106.072h2.402c.036 0 .071-.036.106-.072l3.498-10.378c.071-.072.036-.144-.035-.144zm-12.896 0h1.731c.071 0 .106.072.106.108V20.17c0 .072-.035.108-.106.108h-1.731c-.071 0-.106-.036-.106-.108V9.793c0-.072.035-.108.106-.108zm-13.18 8.792c-2.12 0-3.78-1.945-3.392-4.18.212-1.225 1.414-2.486 2.615-2.738a3.38 3.38 0 013.321 1.08.107.107 0 00.142 0l1.236-1.26a.11.11 0 000-.145 5.294 5.294 0 00-4.204-1.766c-2.721.145-4.982 2.415-5.124 5.19-.141 3.135 2.297 5.73 5.371 5.73a5.366 5.366 0 003.957-1.766c.036-.036.036-.073 0-.108l-1.236-1.262a.107.107 0 00-.142 0c-.6.793-1.519 1.226-2.544 1.226zM112.239 5h-1.731c-.071 0-.106.036-.106.108v15.063c0 .072.035.108.106.108h1.731c.071 0 .106-.036.106-.108V5.108c0-.072-.07-.108-.106-.108zm-25.51 9.297c-.389 2.235 1.272 4.18 3.392 4.18 1.024 0 1.943-.432 2.544-1.225a.106.106 0 01.141 0l1.237 1.262c.035.035.035.072 0 .108-.99 1.08-2.403 1.765-3.958 1.765-3.074 0-5.512-2.594-5.37-5.73.141-2.774 2.402-5.044 5.123-5.189a5.295 5.295 0 014.205 1.766.111.111 0 010 .144l-1.237 1.262a.106.106 0 01-.141 0 3.381 3.381 0 00-3.322-1.081c-1.201.252-2.402 1.513-2.614 2.738zm-12.09-4.793c-1.131 0-2.439.721-3.04 1.586-.035.072-.176.036-.176-.036V9.793c0-.036-.035-.108-.106-.108h-1.731c-.036 0-.106.036-.106.108v10.415c0 .035.035.107.106.107h1.731c.035 0 .106-.036.106-.108v-5.189c0-1.982 1.307-3.387 3.18-3.387 2.473 0 3.215 1.657 3.215 3.603v4.973c0 .036.036.108.106.108h1.732c.035 0 .106-.036.106-.108v-4.973c.035-3.027-1.378-5.73-5.124-5.73zm-13.957 7.82a3.336 3.336 0 002.544 1.153c1.307 0 2.438-.756 3.074-1.837 0-.072.07-.072.106-.072l1.731.324c.07 0 .106.072.07.144-.812 1.982-2.72 3.387-4.946 3.387-3.074 0-5.512-2.594-5.37-5.73.105-2.81 2.402-5.08 5.158-5.188 2.615-.109 4.84 1.73 5.406 4.216 0 .036 0 .072-.07.108l-1.732.757-5.936 2.558c-.07.036-.07.108-.035.18zm58.376 1.153a3.337 3.337 0 01-2.544-1.153c-.035-.072-.035-.144.036-.18l5.936-2.558 1.731-.757c.071-.036.071-.072.071-.108-.566-2.487-2.792-4.325-5.406-4.216-2.756.108-5.053 2.378-5.159 5.189-.141 3.135 2.297 5.73 5.371 5.73 2.226 0 4.134-1.406 4.946-3.388.036-.072 0-.144-.07-.144l-1.732-.324c-.035 0-.106 0-.106.072-.636 1.08-1.802 1.837-3.074 1.837zm0-6.99a3.31 3.31 0 012.544 1.189c.036.072.036.144-.035.18 0 0-5.724 2.486-5.795 2.522-.07.036-.141-.036-.141-.072v-.288c-.035-1.982 1.519-3.532 3.427-3.532zm-24.45 3.495c0-3.027 2.403-5.477 5.37-5.477 2.969 0 5.371 2.45 5.371 5.477s-2.402 5.477-5.37 5.477-5.371-2.45-5.371-5.477zm5.37-3.495c1.909 0 3.428 1.585 3.428 3.495 0 1.91-1.555 3.495-3.427 3.495-1.873 0-3.428-1.585-3.428-3.495 0-1.91 1.52-3.495 3.428-3.495zm-36.752 0c1.024 0 1.943.468 2.544 1.189.035.072.035.144-.036.18 0 0-5.724 2.486-5.794 2.522-.07.036-.142-.036-.142-.072v-.288c0-1.982 1.555-3.532 3.428-3.532zm-14.876-.613c.742-.901 1.803-1.442 3.145-1.478 2.58-.036 4.912 1.838 5.336 4.469.636 3.46-1.98 6.486-5.265 6.486-1.413 0-2.509-.576-3.25-1.477-.072-.072-.178-.036-.178.072v5.946c0 .072-.035.108-.105.108h-1.696c-.071 0-.106-.036-.106-.108v-15.1c0-.071.035-.107.106-.107h1.73c.072 0 .107.036.107.108v1.009c0 .108.106.144.176.072zm-.14 3.423c-.39 2.379 1.624 4.433 3.956 4.036 1.414-.252 2.58-1.405 2.792-2.846.389-2.379-1.625-4.433-3.957-4.037-1.414.217-2.544 1.406-2.792 2.847zm-8.34-4.793c-2.967 0-5.37 2.451-5.37 5.478 0 3.027 2.403 5.477 5.37 5.477 2.969 0 5.371-2.45 5.371-5.477s-2.402-5.477-5.37-5.477zm0 1.982c1.909 0 3.428 1.586 3.428 3.496s-1.555 3.495-3.427 3.495c-1.873 0-3.428-1.585-3.428-3.495 0-1.91 1.555-3.495 3.428-3.495z" fill="#4B4E52"/><path fill-rule="evenodd" clip-rule="evenodd" d="M26.009 6.026A13.935 13.935 0 0128.5 14c0 2.963-.92 5.711-2.491 7.974l-3.626-3.627A8.96 8.96 0 0023.5 14a8.958 8.958 0 00-1.117-4.347l3.626-3.627z" fill="#99CFFF"/><path fill-rule="evenodd" clip-rule="evenodd" d="M22.474 2.491l-3.627 3.627a9 9 0 100 15.765l3.627 3.626A13.936 13.936 0 0114.5 28c-7.732 0-14-6.268-14-14s6.268-14 14-14c2.963 0 5.71.92 7.974 2.491z" fill="#1F87FF"/></symbol><symbol viewBox="0 0 81 79" id="search" xmlns="http://www.w3.org/2000/svg"><path d="M9.4 9.7c-12.1 12.1-12.1 31.8 0 43.9 11.2 11.1 28.7 12 40.9 2.6l5.5 5.5.2 1.9L70.5 78c1.5 1.5 4.9.4 6.5-.9.1-.1.2-.2.3-.2v-.1l1.1-1c1.4-1.4 2.8-5 1.2-6.7L65.4 54.7l-.1-.2-2-.3-5.9-5.9c7.7-12 6.3-28.2-4.2-38.7-12.1-12-31.7-12-43.8.1zm36.8 7c8.2 8.2 8.2 21.6 0 29.8s-21.6 8.2-29.8 0-8.2-21.5 0-29.8c8.2-8.2 21.6-8.2 29.8 0z"/><path stroke="#000" stroke-width=".75" d="M42.3 30.4l.2 1.3 3.9-.6-.2-1.3c-1.4-8.7-9.6-14.6-18.3-13.2l-1.3.2.6 3.9 1.3-.2c6.6-1.1 12.8 3.4 13.8 9.9z"/></symbol></svg>