<?xml version="1.0" encoding="utf-8"?><svg xmlns="http://www.w3.org/2000/svg" xmlns:xlink="http://www.w3.org/1999/xlink"><symbol viewBox="0 0 91 91" id="externallink" xmlns="http://www.w3.org/2000/svg"><path d="M86.474.04H57.789a4.164 4.164 0 1 0 0 8.328h19.095L36.02 49.232a4.163 4.163 0 0 0 2.944 7.109 4.152 4.152 0 0 0 2.944-1.22L82.31 14.718v18.17a4.164 4.164 0 1 0 8.328 0V4.204c0-2.3-1.864-4.164-4.164-4.164z"/><path d="M72.071 41.976a4.164 4.164 0 0 0-4.164 4.164v32.852c0 1.505-1.271 2.776-2.776 2.776h-53.09c-1.505 0-2.776-1.271-2.776-2.776v-53.09c0-1.505 1.271-2.776 2.776-2.776h32.968a4.164 4.164 0 1 0 0-8.328H12.041C5.918 14.798.937 19.779.937 25.902v53.09c0 6.123 4.981 11.104 11.104 11.104h53.09c6.123 0 11.104-4.981 11.104-11.104V46.14a4.164 4.164 0 0 0-4.164-4.164z"/></symbol><symbol viewBox="0 0 514.044 140" id="logo" xmlns="http://www.w3.org/2000/svg"><path d="M98.446 59.539l18.627-29.966H69.159l-5.168 8.432 34.455 21.534zM30.828 19.99v47.914l10.337 6.46 55.989-12.921L30.828 19.99zm75.68 100.02V72.096l-8.269-5.265-21.534 34.455 29.803 18.724zM40.183 78.556l-19.919 31.871h47.914l27.994-44.792-55.989 12.921z"/><path fill="none" d="M0 0h360v140H0z"/><path d="M125.305 91.991h6.162l3.15-38.582h-6.302v-5.391h14.005l12.675 30.11a29.865 29.865 0 0 1 1.12 3.57h.14a29.865 29.865 0 0 1 1.12-3.57l12.675-30.11h14.004v5.391h-6.302l3.15 38.582h6.163v5.462h-19.046v-5.462h5.952l-2.24-29.548a34.013 34.013 0 0 1 .21-4.062h-.21a34.259 34.259 0 0 1-1.12 3.781L159.264 88.14h-6.161L141.76 62.162a34.259 34.259 0 0 1-1.12-3.781h-.21a34.013 34.013 0 0 1 .21 4.062l-2.241 29.548h5.952v5.462h-19.046zm90.478-44.814A24.976 24.976 0 0 1 241.2 72.386c0 14.564-11.133 25.908-25.418 25.908-14.355 0-25.418-11.344-25.418-25.908 0-14.215 11.063-25.209 25.418-25.209zm0 44.885c10.014 0 18.136-8.543 18.136-19.676 0-10.784-8.122-19.047-18.136-19.047-10.084 0-18.206 8.263-18.206 19.047 0 11.133 8.122 19.676 18.206 19.676zm29.836-.07h6.162V53.408h-6.162v-5.391h21.077a34.964 34.964 0 0 1 10.504 1.19c9.452 2.94 15.615 11.483 15.615 23.528 0 11.973-5.953 20.306-15.615 23.387a32.804 32.804 0 0 1-10.434 1.33H245.62zm20.726-.28a22.569 22.569 0 0 0 8.404-1.26c6.651-2.312 10.782-8.684 10.782-17.716 0-9.103-4.13-15.476-10.713-17.856a23.666 23.666 0 0 0-8.473-1.12h-7.561v37.952zm28.297.28h4.622l12.743-19.537-12.533-19.046h-4.552v-5.391h17.226v5.391h-5.253l8.193 12.954a18.75 18.75 0 0 1 1.26 1.961h.14a12.79 12.79 0 0 1 1.191-1.96l7.914-12.955h-5.113v-5.391h16.736v5.391h-4.621L319.78 73.085l12.604 18.906h4.692v5.462H319.85v-5.462h5.183l-8.262-12.883a24.373 24.373 0 0 1-1.262-2.03h-.14c-.07 0-.42.91-1.12 2.03l-7.983 12.883h5.182v5.462h-16.805zm61.626 0h6.162V53.408h-6.162v-5.391h21.077a34.947 34.947 0 0 1 10.503 1.19c9.453 2.94 15.616 11.484 15.616 23.528 0 11.974-5.953 20.306-15.617 23.388a32.788 32.788 0 0 1-10.431 1.33h-21.148zm20.727-.28a22.57 22.57 0 0 0 8.403-1.26c6.651-2.312 10.783-8.684 10.783-17.716 0-9.103-4.132-15.476-10.714-17.856a23.666 23.666 0 0 0-8.472-1.12h-7.561v37.952zm49.863-30.53c10.573 0 19.117 7.773 19.117 18.485 0 10.784-8.544 18.627-19.117 18.627S407.74 90.45 407.74 79.667c0-10.712 8.543-18.485 19.117-18.485zm0 31.23c6.653 0 12.184-5.322 12.184-12.745a12.203 12.203 0 0 0-12.184-12.603c-6.722 0-12.184 5.25-12.184 12.603 0 7.423 5.462 12.745 12.184 12.745zm41.317-31.23c5.251 0 13.865 1.96 13.865 8.053v4.34h-6.023v-2.45c0-2.731-4.481-4.061-7.632-4.061-7.142 0-12.044 5.042-12.044 12.603 0 8.053 5.672 12.745 12.464 12.745 6.023 0 10.083-3.572 11.343-4.552l2.591 4.972a21.602 21.602 0 0 1-14.214 5.462c-10.223 0-19.117-7.073-19.117-18.487 0-10.852 8.193-18.625 18.767-18.625zm17.789 24.858h5.952v2.31c0 3.01 4.202 4.413 8.124 4.413 3.99 0 7.141-1.611 7.141-4.553 0-3.571-3.922-4.692-8.823-6.442-5.251-1.961-11.064-4.342-11.064-10.783 0-7.002 6.933-9.803 13.094-9.803 4.972 0 12.255 1.96 12.255 7.142v4.272h-5.952v-2.31c0-2.171-2.802-3.642-6.232-3.642-3.36 0-6.303 1.4-6.303 4.271 0 3.36 3.923 4.76 8.193 6.232 5.462 1.82 11.694 4.13 11.694 10.713 0 6.722-6.16 10.434-14.214 10.434-6.442 0-13.865-2.871-13.865-8.473z"/></symbol><symbol viewBox="0 0 98 84" id="menu" xmlns="http://www.w3.org/2000/svg"><path d="M92.7 36.7H5.3C2.4 36.7 0 39.1 0 42s2.4 5.3 5.3 5.3h87.4c2.9 0 5.3-2.4 5.3-5.3s-2.4-5.3-5.3-5.3zM5.3 11.2H75c2.9 0 5.3-2.4 5.3-5.3S77.9.6 75 .6H5.3C2.4.6 0 3 0 5.9s2.4 5.3 5.3 5.3zM43 72.8H5.3c-2.9 0-5.3 2.4-5.3 5.3s2.4 5.3 5.3 5.3H43c2.9 0 5.3-2.4 5.3-5.3s-2.4-5.3-5.3-5.3z"/></symbol></svg>