<?xml version="1.0" encoding="utf-8"?><!DOCTYPE svg PUBLIC "-//W3C//DTD SVG 1.1//EN" "http://www.w3.org/Graphics/SVG/1.1/DTD/svg11.dtd"><svg xmlns="http://www.w3.org/2000/svg" xmlns:xlink="http://www.w3.org/1999/xlink"><symbol viewBox="0 0 40 62" id="chevron" xmlns="http://www.w3.org/2000/svg"><path d="M7.594.39.656 7.61l24.25 23.406L.656 54.39l6.938 7.218 28-27 3.75-3.593-3.75-3.625z"/></symbol><symbol viewBox="0 0 90 90" id="close" xmlns="http://www.w3.org/2000/svg"><path d="M44.994.001C20.339.001.155 20.061.001 44.716-.076 56.738 4.534 68.067 12.977 76.62c8.446 8.553 19.716 13.305 31.735 13.379h.293c24.652 0 44.836-20.057 44.993-44.715C90.153 20.476 70.096.161 44.994.001zm.012 83.931h-.255c-10.399-.065-20.149-4.177-27.455-11.575C9.987 64.956 6.003 55.156 6.068 44.754 6.201 23.423 23.663 6.068 45.243 6.068c21.467.136 38.822 17.713 38.689 39.178-.137 21.334-17.598 38.686-38.926 38.686z"/><path d="M64.038 25.962a3.033 3.033 0 0 0-4.29 0L45 40.71 30.252 25.962a3.033 3.033 0 1 0-4.29 4.29L40.71 45 25.962 59.748a3.033 3.033 0 1 0 4.29 4.29L45 49.29l14.748 14.748c.593.593 1.369.889 2.145.889s1.552-.296 2.145-.889a3.033 3.033 0 0 0 0-4.29L49.29 45l14.748-14.748a3.033 3.033 0 0 0 0-4.29z"/></symbol><symbol viewBox="0 0 76 76" id="externallink" xmlns="http://www.w3.org/2000/svg"><path d="M27.372 46.133 72.344 1.162l2.616 2.616-44.972 44.971z"/><path d="M75.6 28.7h-3.8V4.4H47.4V.6h28.2zm-7.5 46.9H.6V8.1h33.7v3.8h-30v60h60v-30h3.8z"/></symbol><symbol viewBox="0 0 2040 345" xml:space="preserve" style="fill-rule:evenodd;clip-rule:evenodd;stroke-linejoin:round;stroke-miterlimit:2" id="logo" xmlns="http://www.w3.org/2000/svg"><clipPath id="da"><path d="M331 34H165l-23 36 120 74 69-110Z" clip-rule="nonzero"/></clipPath><g clip-path="url(#da)"><path style="fill:#00b5de" d="M137 29h199v120H137z"/></g><clipPath id="db"><path d="M142 70 31 1v166l39 22 192-45-120-74Z" clip-rule="nonzero"/></clipPath><g clip-path="url(#db)"><path style="fill:#00decc" d="M26-4h241v198H26z"/></g><clipPath id="dc"><path d="m298 178-36-22-74 119 110 69V178Z" clip-rule="nonzero"/></clipPath><g clip-path="url(#dc)"><path style="fill:#ff5529" d="M183 151h120v198H183z"/></g><clipPath id="dd"><path d="M262 156 69 202 0 310h166l22-35 74-119Z" clip-rule="nonzero"/></clipPath><g clip-path="url(#dd)"><path style="fill:#ff9640" d="M-5 151h272v164H-5z"/></g><path d="M.083 0v-.7h.134l.298.494H.444L.737-.7H.87l.002.7H.72L.719-.467h.028l-.234.393H.44L.201-.467h.034V0H.083Z" style="fill:#102c53;fill-rule:nonzero" transform="matrix(250 0 0 250 415 266)"/><path d="M.423.012A.417.417 0 0 1 .27-.015.355.355 0 0 1 .039-.35a.36.36 0 0 1 .109-.259.355.355 0 0 1 .122-.076.415.415 0 0 1 .152-.027.42.42 0 0 1 .153.027.36.36 0 0 1 .201.19.368.368 0 0 1 0 .29.36.36 0 0 1-.201.19.419.419 0 0 1-.152.027ZM.422-.126a.214.214 0 0 0 .156-.062.212.212 0 0 0 .046-.071.246.246 0 0 0-.046-.253.214.214 0 0 0-.156-.062.214.214 0 0 0-.156.062.212.212 0 0 0-.046.071.246.246 0 0 0 .046.253c.019.02.043.035.069.046a.228.228 0 0 0 .087.016Z" style="fill:#102c53;fill-rule:nonzero" transform="matrix(250 0 0 250 664.65 266)"/><path d="M.083 0v-.7h.318c.076 0 .143.014.201.043.058.029.103.07.136.122a.347.347 0 0 1 .049.185.35.35 0 0 1-.049.185.335.335 0 0 1-.136.122A.444.444 0 0 1 .401 0H.083Zm.162-.133h.148a.274.274 0 0 0 .122-.026.193.193 0 0 0 .079-.076.223.223 0 0 0 .029-.115.227.227 0 0 0-.029-.116.197.197 0 0 0-.079-.075.274.274 0 0 0-.122-.026H.245v.434Z" style="fill:#102c53;fill-rule:nonzero" transform="matrix(250 0 0 250 886.55 266)"/><path d="m.003 0 .301-.415v.118L.016-.7H.2l.199.281-.077.001L.519-.7h.175l-.286.396V-.42L.711 0H.524L.318-.297h.074L.189 0H.003Z" style="fill:#102c53;fill-rule:nonzero" transform="matrix(250 0 0 250 1097.7 266)"/><path d="M.083 0v-.7h.318c.076 0 .143.014.201.043.058.029.103.07.136.122a.347.347 0 0 1 .049.185.35.35 0 0 1-.049.185.335.335 0 0 1-.136.122A.444.444 0 0 1 .401 0H.083Zm.162-.133h.148a.274.274 0 0 0 .122-.026.193.193 0 0 0 .079-.076.223.223 0 0 0 .029-.115.227.227 0 0 0-.029-.116.197.197 0 0 0-.079-.075.274.274 0 0 0-.122-.026H.245v.434Z" style="fill:#00b5de;fill-rule:nonzero" transform="matrix(250 0 0 250 1365.75 266)"/><path d="M.328.008a.313.313 0 0 1-.152-.036.267.267 0 0 1-.144-.241.268.268 0 0 1 .144-.241.31.31 0 0 1 .152-.036c.057 0 .108.012.152.036a.266.266 0 0 1 .105.097c.025.042.038.09.038.144a.262.262 0 0 1-.143.241.316.316 0 0 1-.152.036Zm0-.128a.138.138 0 0 0 .07-.018.134.134 0 0 0 .049-.051.171.171 0 0 0 .018-.08.166.166 0 0 0-.018-.08A.134.134 0 0 0 .398-.4a.138.138 0 0 0-.07-.018.135.135 0 0 0-.07.018.127.127 0 0 0-.049.051.155.155 0 0 0-.019.08c0 .03.006.057.019.08a.127.127 0 0 0 .049.051c.02.012.044.018.07.018Z" style="fill:#00b5de;fill-rule:nonzero" transform="matrix(250 0 0 250 1588.15 266)"/><path d="M.332.008a.328.328 0 0 1-.155-.036.264.264 0 0 1-.145-.241c0-.054.013-.102.039-.144A.268.268 0 0 1 .177-.51a.328.328 0 0 1 .155-.036c.057 0 .106.012.148.036a.212.212 0 0 1 .093.101l-.121.065a.133.133 0 0 0-.121-.074.148.148 0 0 0-.072.018.13.13 0 0 0-.05.051.155.155 0 0 0-.019.08c0 .031.006.058.019.08a.13.13 0 0 0 .05.051.148.148 0 0 0 .14 0 .131.131 0 0 0 .053-.056l.121.066a.22.22 0 0 1-.093.1.292.292 0 0 1-.148.036Z" style="fill:#00b5de;fill-rule:nonzero" transform="matrix(250 0 0 250 1756.55 266)"/><path d="M.253.008a.519.519 0 0 1-.132-.017A.358.358 0 0 1 .02-.05l.052-.112a.389.389 0 0 0 .187.052.175.175 0 0 0 .077-.013c.015-.009.022-.021.022-.036 0-.013-.006-.022-.017-.029a.164.164 0 0 0-.047-.014.839.839 0 0 0-.063-.01.542.542 0 0 1-.07-.014.258.258 0 0 1-.064-.025.127.127 0 0 1-.046-.046.139.139 0 0 1-.018-.075c0-.034.01-.064.03-.09a.189.189 0 0 1 .085-.061.357.357 0 0 1 .134-.023.54.54 0 0 1 .112.012.31.31 0 0 1 .095.035l-.052.111a.335.335 0 0 0-.155-.04.16.16 0 0 0-.076.014c-.016.01-.024.021-.024.036 0 .013.006.023.017.03a.161.161 0 0 0 .047.016l.063.01a.788.788 0 0 1 .07.014.251.251 0 0 1 .063.025c.02.011.035.026.047.046a.137.137 0 0 1 .018.074c0 .033-.01.063-.03.088a.198.198 0 0 1-.087.061.39.39 0 0 1-.137.022Z" style="fill:#00b5de;fill-rule:nonzero" transform="matrix(250 0 0 250 1908.7 266)"/></symbol><symbol viewBox="0 0 98 84" id="menu" xmlns="http://www.w3.org/2000/svg"><path d="M92.7 36.7H5.3C2.4 36.7 0 39.1 0 42s2.4 5.3 5.3 5.3h87.4c2.9 0 5.3-2.4 5.3-5.3s-2.4-5.3-5.3-5.3zM5.3 11.2H75c2.9 0 5.3-2.4 5.3-5.3S77.9.6 75 .6H5.3C2.4.6 0 3 0 5.9s2.4 5.3 5.3 5.3zM43 72.8H5.3c-2.9 0-5.3 2.4-5.3 5.3s2.4 5.3 5.3 5.3H43c2.9 0 5.3-2.4 5.3-5.3s-2.4-5.3-5.3-5.3z"/></symbol><symbol fill="none" viewBox="0 0 168 28" id="opencollective" xmlns="http://www.w3.org/2000/svg"><path fill-rule="evenodd" clip-rule="evenodd" d="M106.727 5h1.732c.035 0 .07.036.106.108v15.063c0 .072-.036.108-.106.108h-1.732c-.07 0-.106-.036-.106-.108V5.108c0-.072.036-.108.106-.108Zm33.284 4.685h1.943c.036 0 .106.072.106.108v1.766c0 .072-.035.108-.106.108h-1.943c-.035 0-.071.036-.071.072v8.432c0 .072-.035.108-.106.108h-1.731c-.071 0-.106-.036-.106-.108V11.74c0-.036-.035-.072-.071-.072h-1.908c-.07 0-.106-.036-.106-.108V9.793c0-.072.036-.108.106-.108h1.908c.036 0 .071-.036.071-.072V5.108c0-.072.035-.108.106-.108h1.731c.071 0 .106.036.106.108v4.505c0 .036.036.072.071.072Zm5.512-3.388h-1.731c-.071 0-.106.036-.106.108v1.766c0 .072.035.108.106.108h1.731c.071 0 .106-.036.106-.108V6.405c0-.072-.035-.108-.106-.108Zm14.204 11.027a3.335 3.335 0 0 0 2.544 1.153c1.307 0 2.438-.756 3.074-1.837 0-.072.07-.072.106-.072l1.731.324c.071 0 .106.072.071.144-.813 1.982-2.721 3.387-4.947 3.387-3.074 0-5.512-2.594-5.371-5.73.106-2.81 2.403-5.08 5.159-5.188 2.615-.109 4.841 1.73 5.406 4.216 0 .036 0 .072-.071.108l-1.731.757-5.936 2.558c-.071.036-.071.108-.035.18Zm5.088-4.648a3.314 3.314 0 0 0-2.544-1.19c-1.908 0-3.463 1.55-3.428 3.532v.288c0 .036.071.108.142.072.07-.036 5.794-2.522 5.794-2.522.071-.036.071-.108.036-.18Zm-8.127-2.991h-1.696c-.035 0-.071.036-.106.072l-2.756 8.252c-.071.18-.283.18-.353 0l-2.756-8.252c0-.036-.036-.072-.106-.072h-1.696c-.071 0-.106.072-.106.144l3.498 10.378c0 .036.035.072.106.072h2.402c.036 0 .071-.036.106-.072l3.498-10.378c.071-.072.036-.144-.035-.144Zm-12.896 0h1.731c.071 0 .106.072.106.108V20.17c0 .072-.035.108-.106.108h-1.731c-.071 0-.106-.036-.106-.108V9.793c0-.072.035-.108.106-.108Zm-13.18 8.792c-2.12 0-3.78-1.945-3.392-4.18.212-1.225 1.414-2.486 2.615-2.738a3.38 3.38 0 0 1 3.321 1.08.107.107 0 0 0 .142 0l1.236-1.26a.11.11 0 0 0 0-.145 5.294 5.294 0 0 0-4.204-1.766c-2.721.145-4.982 2.415-5.124 5.19-.141 3.135 2.297 5.73 5.371 5.73a5.366 5.366 0 0 0 3.957-1.766c.036-.036.036-.073 0-.108l-1.236-1.262a.107.107 0 0 0-.142 0c-.6.793-1.519 1.226-2.544 1.226ZM112.239 5h-1.731c-.071 0-.106.036-.106.108v15.063c0 .072.035.108.106.108h1.731c.071 0 .106-.036.106-.108V5.108c0-.072-.07-.108-.106-.108Zm-25.51 9.297c-.389 2.235 1.272 4.18 3.392 4.18 1.024 0 1.943-.432 2.544-1.225a.106.106 0 0 1 .141 0l1.237 1.262c.035.035.035.072 0 .108-.99 1.08-2.403 1.765-3.958 1.765-3.074 0-5.512-2.594-5.37-5.73.141-2.774 2.402-5.044 5.123-5.189a5.295 5.295 0 0 1 4.205 1.766.111.111 0 0 1 0 .144l-1.237 1.262a.106.106 0 0 1-.141 0 3.381 3.381 0 0 0-3.322-1.081c-1.201.252-2.402 1.513-2.614 2.738Zm-12.09-4.793c-1.131 0-2.439.721-3.04 1.586-.035.072-.176.036-.176-.036V9.793c0-.036-.035-.108-.106-.108h-1.731c-.036 0-.106.036-.106.108v10.415c0 .035.035.107.106.107h1.731c.035 0 .106-.036.106-.108v-5.189c0-1.982 1.307-3.387 3.18-3.387 2.473 0 3.215 1.657 3.215 3.603v4.973c0 .036.036.108.106.108h1.732c.035 0 .106-.036.106-.108v-4.973c.035-3.027-1.378-5.73-5.124-5.73Zm-13.957 7.82a3.336 3.336 0 0 0 2.544 1.153c1.307 0 2.438-.756 3.074-1.837 0-.072.07-.072.106-.072l1.731.324c.07 0 .106.072.07.144-.812 1.982-2.72 3.387-4.946 3.387-3.074 0-5.512-2.594-5.37-5.73.105-2.81 2.402-5.08 5.158-5.188 2.615-.109 4.84 1.73 5.406 4.216 0 .036 0 .072-.07.108l-1.732.757-5.936 2.558c-.07.036-.07.108-.035.18Zm58.376 1.153a3.337 3.337 0 0 1-2.544-1.153c-.035-.072-.035-.144.036-.18l5.936-2.558 1.731-.757c.071-.036.071-.072.071-.108-.566-2.487-2.792-4.325-5.406-4.216-2.756.108-5.053 2.378-5.159 5.189-.141 3.135 2.297 5.73 5.371 5.73 2.226 0 4.134-1.406 4.946-3.388.036-.072 0-.144-.07-.144l-1.732-.324c-.035 0-.106 0-.106.072-.636 1.08-1.802 1.837-3.074 1.837Zm0-6.99a3.31 3.31 0 0 1 2.544 1.189c.036.072.036.144-.035.18 0 0-5.724 2.486-5.795 2.522-.07.036-.141-.036-.141-.072v-.288c-.035-1.982 1.519-3.532 3.427-3.532Zm-24.45 3.495c0-3.027 2.403-5.477 5.37-5.477 2.969 0 5.371 2.45 5.371 5.477s-2.402 5.477-5.37 5.477-5.371-2.45-5.371-5.477Zm5.37-3.495c1.909 0 3.428 1.585 3.428 3.495 0 1.91-1.555 3.495-3.427 3.495-1.873 0-3.428-1.585-3.428-3.495 0-1.91 1.52-3.495 3.428-3.495Zm-36.752 0c1.024 0 1.943.468 2.544 1.189.035.072.035.144-.036.18 0 0-5.724 2.486-5.794 2.522-.07.036-.142-.036-.142-.072v-.288c0-1.982 1.555-3.532 3.428-3.532Zm-14.876-.613c.742-.901 1.803-1.442 3.145-1.478 2.58-.036 4.912 1.838 5.336 4.469.636 3.46-1.98 6.486-5.265 6.486-1.413 0-2.509-.576-3.25-1.477-.072-.072-.178-.036-.178.072v5.946c0 .072-.035.108-.105.108h-1.696c-.071 0-.106-.036-.106-.108v-15.1c0-.071.035-.107.106-.107h1.73c.072 0 .107.036.107.108v1.009c0 .108.106.144.176.072Zm-.14 3.423c-.39 2.379 1.624 4.433 3.956 4.036 1.414-.252 2.58-1.405 2.792-2.846.389-2.379-1.625-4.433-3.957-4.037-1.414.217-2.544 1.406-2.792 2.847Zm-8.34-4.793c-2.967 0-5.37 2.451-5.37 5.478 0 3.027 2.403 5.477 5.37 5.477 2.969 0 5.371-2.45 5.371-5.477s-2.402-5.477-5.37-5.477Zm0 1.982c1.909 0 3.428 1.586 3.428 3.496s-1.555 3.495-3.427 3.495c-1.873 0-3.428-1.585-3.428-3.495 0-1.91 1.555-3.495 3.428-3.495Z" fill="#4B4E52"/><path fill-rule="evenodd" clip-rule="evenodd" d="M26.009 6.026A13.935 13.935 0 0 1 28.5 14c0 2.963-.92 5.711-2.491 7.974l-3.626-3.627A8.96 8.96 0 0 0 23.5 14a8.958 8.958 0 0 0-1.117-4.347l3.626-3.627Z" fill="#99CFFF"/><path fill-rule="evenodd" clip-rule="evenodd" d="m22.474 2.491-3.627 3.627a9 9 0 1 0 0 15.765l3.627 3.626A13.936 13.936 0 0 1 14.5 28c-7.732 0-14-6.268-14-14s6.268-14 14-14c2.963 0 5.71.92 7.974 2.491Z" fill="#1F87FF"/></symbol><symbol viewBox="0 0 81 79" id="search" xmlns="http://www.w3.org/2000/svg"><path d="M9.4 9.7c-12.1 12.1-12.1 31.8 0 43.9 11.2 11.1 28.7 12 40.9 2.6l5.5 5.5.2 1.9L70.5 78c1.5 1.5 4.9.4 6.5-.9.1-.1.2-.2.3-.2v-.1l1.1-1c1.4-1.4 2.8-5 1.2-6.7L65.4 54.7l-.1-.2-2-.3-5.9-5.9c7.7-12 6.3-28.2-4.2-38.7-12.1-12-31.7-12-43.8.1zm36.8 7c8.2 8.2 8.2 21.6 0 29.8s-21.6 8.2-29.8 0-8.2-21.5 0-29.8c8.2-8.2 21.6-8.2 29.8 0z"/><path stroke="#000" stroke-width=".75" d="m42.3 30.4.2 1.3 3.9-.6-.2-1.3c-1.4-8.7-9.6-14.6-18.3-13.2l-1.3.2.6 3.9 1.3-.2c6.6-1.1 12.8 3.4 13.8 9.9z"/></symbol></svg>