<?xml version="1.0" encoding="utf-8"?><svg xmlns="http://www.w3.org/2000/svg" xmlns:xlink="http://www.w3.org/1999/xlink"><symbol viewBox="0 0 91 91" id="externallink" xmlns="http://www.w3.org/2000/svg"><path d="M86.474.04H57.789a4.164 4.164 0 1 0 0 8.328h19.095L36.02 49.232a4.163 4.163 0 0 0 2.944 7.109 4.152 4.152 0 0 0 2.944-1.22L82.31 14.718v18.17a4.164 4.164 0 1 0 8.328 0V4.204c0-2.3-1.864-4.164-4.164-4.164z"/><path d="M72.071 41.976a4.164 4.164 0 0 0-4.164 4.164v32.852c0 1.505-1.271 2.776-2.776 2.776h-53.09c-1.505 0-2.776-1.271-2.776-2.776v-53.09c0-1.505 1.271-2.776 2.776-2.776h32.968a4.164 4.164 0 1 0 0-8.328H12.041C5.918 14.798.937 19.779.937 25.902v53.09c0 6.123 4.981 11.104 11.104 11.104h53.09c6.123 0 11.104-4.981 11.104-11.104V46.14a4.164 4.164 0 0 0-4.164-4.164z"/></symbol><symbol viewBox="0 0 98 84" id="menu" xmlns="http://www.w3.org/2000/svg"><path d="M92.7 36.7H5.3C2.4 36.7 0 39.1 0 42s2.4 5.3 5.3 5.3h87.4c2.9 0 5.3-2.4 5.3-5.3s-2.4-5.3-5.3-5.3zM5.3 11.2H75c2.9 0 5.3-2.4 5.3-5.3S77.9.6 75 .6H5.3C2.4.6 0 3 0 5.9s2.4 5.3 5.3 5.3zM43 72.8H5.3c-2.9 0-5.3 2.4-5.3 5.3s2.4 5.3 5.3 5.3H43c2.9 0 5.3-2.4 5.3-5.3s-2.4-5.3-5.3-5.3z"/></symbol></svg>