<svg xmlns="http://www.w3.org/2000/svg" viewBox="0 0 90 90">
  <g fill="#000" fill-rule="nonzero">
    <path d="M44.994.001C20.339.001.155 20.061.001 44.716-.076 56.738 4.534 68.067 12.977 76.62c8.446 8.553 19.716 13.305 31.735 13.379h.293c24.652 0 44.836-20.057 44.993-44.715C90.153 20.476 70.096.161 44.994.001zm.012 83.931h-.255c-10.399-.065-20.149-4.177-27.455-11.575C9.987 64.956 6.003 55.156 6.068 44.754 6.201 23.423 23.663 6.068 45.243 6.068c21.467.136 38.822 17.713 38.689 39.178-.137 21.334-17.598 38.686-38.926 38.686z"/>
    <path d="M64.038 25.962c-1.185-1.185-3.105-1.185-4.29 0L45 40.71 30.252 25.962c-1.185-1.185-3.105-1.185-4.29 0s-1.185 3.105 0 4.29L40.71 45 25.962 59.748c-1.185 1.185-1.185 3.105 0 4.29.593.593 1.369.889 2.145.889s1.552-.296 2.145-.889L45 49.29l14.748 14.748c.593.593 1.369.889 2.145.889s1.552-.296 2.145-.889c1.185-1.185 1.185-3.105 0-4.29L49.29 45l14.748-14.748c1.185-1.185 1.185-3.105 0-4.29z"/>
  </g>
</svg>
