<svg xmlns="http://www.w3.org/2000/svg" viewBox="0 0 91 91">
  <g fill="#000" fill-rule="nonzero">
    <path d="M86.474.04H57.789c-2.3 0-4.164 1.864-4.164 4.164s1.864 4.164 4.164 4.164h19.095L36.02 49.232c-1.627 1.626-1.627 4.263 0 5.889.813.813 1.879 1.22 2.944 1.22s2.131-.407 2.944-1.22L82.31 14.718v18.17c0 2.3 1.864 4.164 4.164 4.164s4.164-1.864 4.164-4.164V4.204c0-2.3-1.864-4.164-4.164-4.164z"/>
    <path d="M72.071 41.976c-2.3 0-4.164 1.864-4.164 4.164v32.852c0 1.505-1.271 2.776-2.776 2.776h-53.09c-1.505 0-2.776-1.271-2.776-2.776v-53.09c0-1.505 1.271-2.776 2.776-2.776h32.968c2.3 0 4.164-1.864 4.164-4.164s-1.864-4.164-4.164-4.164H12.041C5.918 14.798.937 19.779.937 25.902v53.09c0 6.123 4.981 11.104 11.104 11.104h53.09c6.123 0 11.104-4.981 11.104-11.104V46.14c0-2.299-1.864-4.164-4.164-4.164z"/>
  </g>
</svg>
