<svg xmlns="http://www.w3.org/2000/svg" data-name="Ebene 1" viewBox="0 0 514.0438 140">
  <path d="M98.446 59.539l18.627-29.966H69.159l-5.168 8.432 34.455 21.534zM30.828 19.99v47.914l10.337 6.46 55.989-12.921L30.828 19.99zM106.508 120.01V72.096l-8.269-5.265-21.534 34.455 29.803 18.724zM40.183 78.556l-19.919 31.871h47.914l27.994-44.792-55.989 12.921z"/>
  <path fill="none" d="M0 0h360v140H0z"/>
  <path d="M125.3047 91.9912h6.162l3.1506-38.582h-6.3019v-5.3913H142.32l12.6745 30.1093a29.8651 29.8651 0 0 1 1.12 3.5717h.14a29.8651 29.8651 0 0 1 1.12-3.5717l12.6751-30.1093h14.0046v5.3913h-6.3027l3.1514 38.582h6.162v5.462h-19.0463v-5.462h5.9523l-2.2408-29.5484a34.013 34.013 0 0 1 .21-4.0619h-.21a34.2586 34.2586 0 0 1-1.12 3.7814l-11.3447 25.9779h-6.1618l-11.3438-25.9779a34.2586 34.2586 0 0 1-1.12-3.7814h-.21a34.013 34.013 0 0 1 .21 4.0619l-2.2411 29.5484h5.9523v5.462h-19.0463zM215.7826 47.1772a24.9764 24.9764 0 0 1 25.4181 25.2083c0 14.5648-11.133 25.9084-25.4181 25.9084-14.3542 0-25.4181-11.3436-25.4181-25.9084 0-14.2144 11.0639-25.2083 25.4181-25.2083zm0 44.8847c10.0142 0 18.1365-8.5434 18.1365-19.6764 0-10.7833-8.1223-19.0463-18.1365-19.0463-10.0833 0-18.2056 8.263-18.2056 19.0463 0 11.133 8.1223 19.6764 18.2056 19.6764zM245.6192 91.9912h6.1613v-38.582h-6.1613v-5.3913h21.0765a34.9637 34.9637 0 0 1 10.5044 1.19c9.4517 2.9407 15.6145 11.4834 15.6145 23.5277 0 11.9737-5.9523 20.3065-15.6145 23.3879a32.8043 32.8043 0 0 1-10.4337 1.3294h-21.1472zm20.7261-.28a22.569 22.569 0 0 0 8.4035-1.26c6.6515-2.3114 10.7826-8.6833 10.7826-17.7154 0-9.1028-4.1311-15.4754-10.7134-17.856a23.666 23.666 0 0 0-8.4727-1.12h-7.5617v37.9517zM294.6419 91.9912h4.6217l12.7437-19.5365-12.5337-19.0455h-4.552v-5.3913h17.2267v5.3913h-5.253l8.193 12.9541a18.75 18.75 0 0 1 1.26 1.9611h.14a12.79 12.79 0 0 1 1.1911-1.9611l7.9133-12.9541h-5.1131v-5.3913h16.7364v5.3913h-4.6214l-12.8143 19.6756 12.6038 18.9064h4.692v5.462h-17.2266v-5.462h5.1822l-8.2621-12.8835c-.7715-1.12-1.2618-2.03-1.2618-2.03h-.14c-.0692 0-.42.91-1.12 2.03l-7.9826 12.8835h5.1822v5.462h-16.8055zM356.2684 91.9912h6.1612v-38.582h-6.1612v-5.3913h21.0765a34.9466 34.9466 0 0 1 10.5028 1.19c9.4533 2.941 15.6159 11.4837 15.6159 23.528 0 11.9737-5.9523 20.3065-15.6161 23.3879a32.788 32.788 0 0 1-10.4319 1.3294h-21.1472zm20.7261-.28a22.5694 22.5694 0 0 0 8.4035-1.26c6.6515-2.3114 10.7826-8.6833 10.7826-17.7154 0-9.1028-4.1311-15.4754-10.7134-17.856a23.666 23.666 0 0 0-8.4727-1.12h-7.5609v37.9517zM426.8578 61.1818c10.5736 0 19.117 7.7727 19.117 18.4854 0 10.7841-8.5434 18.6267-19.117 18.6267s-19.117-7.8426-19.117-18.6267c0-10.7127 8.5434-18.4854 19.117-18.4854zm0 31.2305c6.6531 0 12.1842-5.3221 12.1842-12.7451a12.2025 12.2025 0 0 0-12.1842-12.6031c-6.7222 0-12.1842 5.2507-12.1842 12.6031 0 7.423 5.462 12.7451 12.1842 12.7451zM468.1747 61.1818c5.2515 0 13.8656 1.9611 13.8656 8.0532v4.34h-6.023v-2.45c0-2.731-4.4815-4.0612-7.632-4.0612-7.1418 0-12.0444 5.0417-12.0444 12.6031 0 8.0531 5.6726 12.7451 12.4639 12.7451 6.023 0 10.0834-3.5716 11.3436-4.5522l2.5911 4.9718a21.6018 21.6018 0 0 1-14.2144 5.462c-10.2232 0-19.117-7.0726-19.117-18.4869 0-10.8522 8.193-18.6249 18.7666-18.6249zM485.9636 86.0402h5.9522v2.31c0 3.0107 4.2018 4.4123 8.1238 4.4123 3.9913 0 7.1418-1.6106 7.1418-4.5522 0-3.5716-3.922-4.692-8.8231-6.4425-5.2514-1.961-11.0638-4.3416-11.0638-10.7826 0-7.0027 6.9327-9.8036 13.094-9.8036 4.9717 0 12.2549 1.9611 12.2549 7.1426v4.2717h-5.9522v-2.3105c0-2.1708-2.8017-3.6416-6.232-3.6416-3.3611 0-6.3027 1.4009-6.3027 4.2717 0 3.36 3.9221 4.76 8.193 6.2312 5.462 1.8212 11.694 4.1311 11.694 10.7134 0 6.7223-6.1613 10.4338-14.2144 10.4338-6.4425 0-13.8655-2.8709-13.8655-8.4727z"/>
</svg>
