<?xml version="1.0" encoding="UTF-8" standalone="no"?>
<!DOCTYPE svg PUBLIC "-//W3C//DTD SVG 1.1//EN" "http://www.w3.org/Graphics/SVG/1.1/DTD/svg11.dtd">
<svg width="100%" height="100%" viewBox="0 0 2040 345" version="1.1" xmlns="http://www.w3.org/2000/svg" xmlns:xlink="http://www.w3.org/1999/xlink" xml:space="preserve" xmlns:serif="http://www.serif.com/" style="fill-rule:evenodd;clip-rule:evenodd;stroke-linejoin:round;stroke-miterlimit:2;">
    <g>
        <clipPath id="_clip1">
            <path d="M331,34L165,34L142,70L262,144L331,34Z" clip-rule="nonzero"/>
        </clipPath>
        <g clip-path="url(#_clip1)">
            <rect x="137" y="29" width="199" height="120" style="fill:rgb(0,181,222);"/>
        </g>
        <clipPath id="_clip2">
            <path d="M142,70L31,1L31,167L70,189L262,144L142,70Z" clip-rule="nonzero"/>
        </clipPath>
        <g clip-path="url(#_clip2)">
            <rect x="26" y="-4" width="241" height="198" style="fill:rgb(0,222,204);"/>
        </g>
        <clipPath id="_clip3">
            <path d="M298,178L262,156L188,275L298,344L298,178Z" clip-rule="nonzero"/>
        </clipPath>
        <g clip-path="url(#_clip3)">
            <rect x="183" y="151" width="120" height="198" style="fill:rgb(255,85,41);"/>
        </g>
        <clipPath id="_clip4">
            <path d="M262,156L69,202L0,310L166,310L188,275L262,156Z" clip-rule="nonzero"/>
        </clipPath>
        <g clip-path="url(#_clip4)">
            <rect x="-5" y="151" width="272" height="164" style="fill:rgb(255,150,64);"/>
        </g>
    </g>
    <g transform="matrix(1,0,0,1,-30,-29)">
        <g transform="matrix(250,0,0,250,445,295)">
            <path d="M0.083,-0L0.083,-0.7L0.217,-0.7L0.515,-0.206L0.444,-0.206L0.737,-0.7L0.87,-0.7L0.872,-0L0.72,-0L0.719,-0.467L0.747,-0.467L0.513,-0.074L0.44,-0.074L0.201,-0.467L0.235,-0.467L0.235,-0L0.083,-0Z" style="fill:rgb(16,44,83);fill-rule:nonzero;"/>
        </g>
        <g transform="matrix(250,0,0,250,694.65,295)">
            <path d="M0.423,0.012C0.367,0.012 0.316,0.003 0.27,-0.015C0.223,-0.033 0.182,-0.059 0.148,-0.091C0.114,-0.124 0.087,-0.162 0.068,-0.206C0.049,-0.25 0.039,-0.298 0.039,-0.35C0.039,-0.402 0.049,-0.45 0.068,-0.494C0.087,-0.538 0.114,-0.576 0.148,-0.609C0.182,-0.642 0.223,-0.667 0.27,-0.685C0.316,-0.703 0.367,-0.712 0.422,-0.712C0.478,-0.712 0.528,-0.703 0.575,-0.685C0.621,-0.667 0.662,-0.642 0.696,-0.609C0.73,-0.577 0.757,-0.538 0.776,-0.495C0.795,-0.451 0.805,-0.402 0.805,-0.35C0.805,-0.298 0.795,-0.25 0.776,-0.205C0.757,-0.161 0.73,-0.123 0.696,-0.091C0.662,-0.058 0.621,-0.033 0.575,-0.015C0.528,0.003 0.478,0.012 0.423,0.012ZM0.422,-0.126C0.453,-0.126 0.482,-0.131 0.509,-0.142C0.535,-0.153 0.558,-0.168 0.578,-0.188C0.598,-0.208 0.613,-0.232 0.624,-0.259C0.635,-0.287 0.641,-0.317 0.641,-0.35C0.641,-0.383 0.635,-0.414 0.624,-0.441C0.613,-0.468 0.598,-0.492 0.578,-0.512C0.558,-0.532 0.535,-0.547 0.509,-0.558C0.482,-0.569 0.453,-0.574 0.422,-0.574C0.391,-0.574 0.362,-0.569 0.335,-0.558C0.309,-0.547 0.286,-0.532 0.266,-0.512C0.246,-0.492 0.231,-0.468 0.22,-0.441C0.209,-0.413 0.203,-0.383 0.203,-0.35C0.203,-0.317 0.209,-0.287 0.22,-0.259C0.231,-0.232 0.246,-0.208 0.266,-0.188C0.285,-0.168 0.309,-0.153 0.335,-0.142C0.362,-0.131 0.391,-0.126 0.422,-0.126Z" style="fill:rgb(16,44,83);fill-rule:nonzero;"/>
        </g>
        <g transform="matrix(250,0,0,250,916.55,295)">
            <path d="M0.083,-0L0.083,-0.7L0.401,-0.7C0.477,-0.7 0.544,-0.686 0.602,-0.657C0.66,-0.628 0.705,-0.587 0.738,-0.535C0.77,-0.483 0.787,-0.421 0.787,-0.35C0.787,-0.279 0.77,-0.218 0.738,-0.165C0.705,-0.113 0.66,-0.072 0.602,-0.043C0.544,-0.014 0.477,-0 0.401,-0L0.083,-0ZM0.245,-0.133L0.393,-0.133C0.44,-0.133 0.48,-0.142 0.515,-0.159C0.549,-0.177 0.575,-0.202 0.594,-0.235C0.613,-0.267 0.623,-0.306 0.623,-0.35C0.623,-0.395 0.613,-0.433 0.594,-0.466C0.575,-0.498 0.549,-0.523 0.515,-0.541C0.48,-0.558 0.44,-0.567 0.393,-0.567L0.245,-0.567L0.245,-0.133Z" style="fill:rgb(16,44,83);fill-rule:nonzero;"/>
        </g>
        <g transform="matrix(250,0,0,250,1127.7,295)">
            <path d="M0.003,-0L0.304,-0.415L0.304,-0.297L0.016,-0.7L0.2,-0.7L0.399,-0.419L0.322,-0.418L0.519,-0.7L0.694,-0.7L0.408,-0.304L0.408,-0.42L0.711,-0L0.524,-0L0.318,-0.297L0.392,-0.297L0.189,-0L0.003,-0Z" style="fill:rgb(16,44,83);fill-rule:nonzero;"/>
        </g>
        <g transform="matrix(250,0,0,250,1395.75,295)">
            <path d="M0.083,-0L0.083,-0.7L0.401,-0.7C0.477,-0.7 0.544,-0.686 0.602,-0.657C0.66,-0.628 0.705,-0.587 0.738,-0.535C0.77,-0.483 0.787,-0.421 0.787,-0.35C0.787,-0.279 0.77,-0.218 0.738,-0.165C0.705,-0.113 0.66,-0.072 0.602,-0.043C0.544,-0.014 0.477,-0 0.401,-0L0.083,-0ZM0.245,-0.133L0.393,-0.133C0.44,-0.133 0.48,-0.142 0.515,-0.159C0.549,-0.177 0.575,-0.202 0.594,-0.235C0.613,-0.267 0.623,-0.306 0.623,-0.35C0.623,-0.395 0.613,-0.433 0.594,-0.466C0.575,-0.498 0.549,-0.523 0.515,-0.541C0.48,-0.558 0.44,-0.567 0.393,-0.567L0.245,-0.567L0.245,-0.133Z" style="fill:rgb(0,181,222);fill-rule:nonzero;"/>
        </g>
        <g transform="matrix(250,0,0,250,1618.15,295)">
            <path d="M0.328,0.008C0.271,0.008 0.22,-0.004 0.176,-0.028C0.131,-0.052 0.096,-0.084 0.071,-0.126C0.045,-0.168 0.032,-0.216 0.032,-0.269C0.032,-0.323 0.045,-0.371 0.071,-0.413C0.096,-0.454 0.131,-0.487 0.176,-0.51C0.22,-0.534 0.27,-0.546 0.328,-0.546C0.385,-0.546 0.436,-0.534 0.48,-0.51C0.525,-0.487 0.559,-0.454 0.585,-0.413C0.61,-0.371 0.623,-0.323 0.623,-0.269C0.623,-0.215 0.61,-0.168 0.585,-0.126C0.56,-0.084 0.525,-0.052 0.48,-0.028C0.435,-0.004 0.385,0.008 0.328,0.008ZM0.328,-0.12C0.354,-0.12 0.377,-0.126 0.398,-0.138C0.418,-0.15 0.435,-0.167 0.447,-0.189C0.459,-0.212 0.465,-0.239 0.465,-0.269C0.465,-0.3 0.459,-0.327 0.447,-0.349C0.435,-0.371 0.418,-0.388 0.398,-0.4C0.377,-0.412 0.354,-0.418 0.328,-0.418C0.302,-0.418 0.278,-0.412 0.258,-0.4C0.237,-0.388 0.221,-0.371 0.209,-0.349C0.196,-0.327 0.19,-0.3 0.19,-0.269C0.19,-0.239 0.196,-0.212 0.209,-0.189C0.221,-0.167 0.237,-0.15 0.258,-0.138C0.278,-0.126 0.302,-0.12 0.328,-0.12Z" style="fill:rgb(0,181,222);fill-rule:nonzero;"/>
        </g>
        <g transform="matrix(250,0,0,250,1786.55,295)">
            <path d="M0.332,0.008C0.274,0.008 0.223,-0.004 0.177,-0.028C0.132,-0.051 0.097,-0.084 0.071,-0.126C0.045,-0.168 0.032,-0.215 0.032,-0.269C0.032,-0.323 0.045,-0.371 0.071,-0.413C0.097,-0.454 0.132,-0.487 0.177,-0.51C0.223,-0.534 0.274,-0.546 0.332,-0.546C0.389,-0.546 0.438,-0.534 0.48,-0.51C0.522,-0.487 0.553,-0.453 0.573,-0.409L0.452,-0.344C0.438,-0.369 0.42,-0.388 0.399,-0.4C0.378,-0.412 0.356,-0.418 0.331,-0.418C0.305,-0.418 0.281,-0.412 0.259,-0.4C0.238,-0.388 0.221,-0.371 0.209,-0.349C0.196,-0.327 0.19,-0.3 0.19,-0.269C0.19,-0.238 0.196,-0.211 0.209,-0.189C0.221,-0.167 0.238,-0.15 0.259,-0.138C0.281,-0.126 0.305,-0.12 0.331,-0.12C0.356,-0.12 0.378,-0.126 0.399,-0.138C0.42,-0.149 0.438,-0.168 0.452,-0.194L0.573,-0.128C0.553,-0.085 0.522,-0.052 0.48,-0.028C0.438,-0.004 0.389,0.008 0.332,0.008Z" style="fill:rgb(0,181,222);fill-rule:nonzero;"/>
        </g>
        <g transform="matrix(250,0,0,250,1938.7,295)">
            <path d="M0.253,0.008C0.207,0.008 0.163,0.002 0.121,-0.009C0.079,-0.02 0.045,-0.034 0.02,-0.05L0.072,-0.162C0.096,-0.146 0.125,-0.134 0.159,-0.124C0.193,-0.115 0.226,-0.11 0.259,-0.11C0.295,-0.11 0.321,-0.115 0.336,-0.123C0.351,-0.132 0.358,-0.144 0.358,-0.159C0.358,-0.172 0.352,-0.181 0.341,-0.188C0.329,-0.194 0.313,-0.199 0.294,-0.202C0.275,-0.206 0.254,-0.209 0.231,-0.212C0.207,-0.215 0.184,-0.22 0.161,-0.226C0.138,-0.232 0.116,-0.24 0.097,-0.251C0.078,-0.262 0.062,-0.278 0.051,-0.297C0.039,-0.316 0.033,-0.341 0.033,-0.372C0.033,-0.406 0.043,-0.436 0.063,-0.462C0.083,-0.488 0.111,-0.509 0.148,-0.523C0.185,-0.538 0.23,-0.546 0.282,-0.546C0.319,-0.546 0.356,-0.542 0.394,-0.534C0.432,-0.526 0.464,-0.514 0.489,-0.499L0.437,-0.388C0.411,-0.403 0.385,-0.414 0.358,-0.419C0.332,-0.425 0.307,-0.428 0.282,-0.428C0.247,-0.428 0.222,-0.423 0.206,-0.414C0.19,-0.404 0.182,-0.393 0.182,-0.378C0.182,-0.365 0.188,-0.355 0.199,-0.348C0.211,-0.341 0.227,-0.336 0.246,-0.332C0.265,-0.328 0.286,-0.325 0.309,-0.322C0.333,-0.318 0.356,-0.314 0.379,-0.308C0.402,-0.302 0.423,-0.294 0.442,-0.283C0.462,-0.272 0.477,-0.257 0.489,-0.237C0.501,-0.218 0.507,-0.193 0.507,-0.163C0.507,-0.13 0.497,-0.1 0.477,-0.075C0.457,-0.049 0.428,-0.029 0.39,-0.014C0.353,0 0.307,0.008 0.253,0.008Z" style="fill:rgb(0,181,222);fill-rule:nonzero;"/>
        </g>
    </g>
</svg>
