<svg xmlns="http://www.w3.org/2000/svg" viewBox="0 0 81 79">
  <g fill="#000" fill-rule="nonzero">
    <path d="M9.4 9.7c-12.1 12.1-12.1 31.8 0 43.9 11.2 11.1 28.7 12 40.9 2.6l5.5 5.5.2 1.9L70.5 78c1.5 1.5 4.9.4 6.5-.9.1-.1.2-.2.3-.2v-.1l1.1-1c1.4-1.4 2.8-5 1.2-6.7L65.4 54.7l-.1-.2-2-.3-5.9-5.9c7.7-12 6.3-28.2-4.2-38.7-12.1-12-31.7-12-43.8.1zm36.8 7c8.2 8.2 8.2 21.6 0 29.8s-21.6 8.2-29.8 0-8.2-21.5 0-29.8c8.2-8.2 21.6-8.2 29.8 0z"/>
    <path stroke="#000" stroke-width=".75" d="M42.3 30.4l.2 1.3 3.9-.6-.2-1.3c-1.4-8.7-9.6-14.6-18.3-13.2l-1.3.2.6 3.9 1.3-.2c6.6-1.1 12.8 3.4 13.8 9.9z"/>
  </g>
</svg>
